<svg width="1440" height="60" viewBox="0 0 1440 60" fill="none" xmlns="http://www.w3.org/2000/svg">
<g clip-path="url(#clip0_1_8464)">
<path d="M72.54 60C72.0106 59.9162 71.4758 59.8563 70.9528 59.7419C68.5627 59.2192 66.8545 57.8102 65.9609 55.5354C64.646 52.1848 64.5563 48.7437 65.7243 45.3408C66.7594 42.3321 69.2726 40.5822 72.4233 40.5495C73.3917 40.5262 74.3595 40.619 75.3061 40.8261C77.9068 41.4381 79.5838 43.1466 80.3736 45.6697C81.3331 48.7383 81.3396 51.8526 80.2991 54.9016C79.2747 57.9027 77.1656 59.633 73.9749 59.9107C73.8533 59.9307 73.7333 59.9602 73.6162 59.9989L72.54 60ZM70.1003 50.0831C70.2829 51.4813 70.3834 52.7074 70.62 53.9064C70.7929 54.7775 71.3418 55.4363 72.2602 55.6704C73.6713 56.0287 74.9193 55.2762 75.3353 53.7604C75.7502 52.2196 75.8741 50.6138 75.7005 49.0269C75.6024 48.0966 75.4072 47.1794 75.1181 46.2904C75.0013 45.8953 74.7743 45.5424 74.4642 45.2737C74.1541 45.005 73.7738 44.8317 73.3688 44.7746C72.1057 44.5677 71.1235 45.11 70.7432 46.4624C70.4007 47.682 70.2894 48.9681 70.1003 50.0831Z" fill="#181818"/>
<path d="M175.854 59.4567C174.039 59.4676 172.224 59.4817 170.408 59.4882C168.895 59.4937 167.392 59.4882 165.849 59.4882V41.0777C165.966 41.0546 166.085 41.0393 166.204 41.032C169.279 41.032 172.354 41.032 175.43 41.032C175.572 41.0408 175.714 41.0583 175.854 41.0842V44.9979H170.804V48.3735H175.081V52.1924H170.799V55.5398H175.854V59.4567Z" fill="#181818"/>
<path d="M161.065 60C160.322 59.877 159.568 59.804 158.842 59.6211C157.069 59.1735 155.473 58.1907 154.269 56.8044C153.065 55.4181 152.31 53.6943 152.104 51.8636C151.875 49.9296 151.9 48.0088 152.684 46.2011C154.232 42.6469 157.006 40.7837 160.826 40.5681C161.997 40.5028 163.183 40.677 164.392 40.7489V45.244L162.801 44.9685C159.335 44.3619 157.507 46.9601 157.301 49.4799C157.218 50.5155 157.286 51.5489 157.643 52.5289C158.407 54.6447 160.379 55.8142 162.652 55.4886C163.219 55.4069 163.78 55.2839 164.424 55.1619V59.5547L162.047 59.9902L161.065 60Z" fill="#181818"/>
<path d="M60.5573 60C59.9209 59.8977 59.279 59.8247 58.6502 59.6897C54.8199 58.8632 52.0106 55.6781 51.5913 51.7405C51.4401 50.3249 51.4336 48.9191 51.7664 47.5296C52.7313 43.5006 56.1607 40.6868 60.3466 40.5659C61.52 40.5322 62.6988 40.6868 63.8906 40.7565V45.244C63.3568 45.1525 62.8349 45.0654 62.3141 44.9739C58.8382 44.3587 56.9722 46.9601 56.7896 49.5779C56.7129 50.6723 56.809 51.7557 57.2348 52.7761C58.0505 54.7361 59.9641 55.8055 62.138 55.4984C62.7064 55.4178 63.2682 55.2948 63.8744 55.1837V59.5753L61.5286 60.0044L60.5573 60Z" fill="#181818"/>
<path d="M119.306 32.9935L121.872 39.3637C121.511 39.1699 121.283 39.0512 121.06 38.9281C117.711 37.0519 114.375 35.167 111.018 33.3114C110.643 33.1125 110.227 33.0072 109.803 33.0044C101.618 32.9869 93.433 32.9826 85.2464 32.9913C82.1411 32.9913 79.7186 31.0105 79.1114 27.9539C79.0429 27.5253 79.0164 27.0909 79.0325 26.657C79.0271 19.9361 79.0736 13.2142 79.0098 6.49437C78.9785 3.13938 81.3264 0.781847 83.7997 0.314697C84.275 0.217227 84.7582 0.164009 85.2432 0.155713C102.963 0.148454 120.683 0.148454 138.403 0.155713C141.472 0.155713 143.882 2.07441 144.538 5.07441C144.659 5.69586 144.713 6.3285 144.699 6.96152C144.711 13.3753 144.713 19.7884 144.705 26.2007C144.705 27.7873 144.441 29.2965 143.427 30.5913C142.199 32.1561 140.588 32.9804 138.627 32.9869C132.456 33.0142 126.286 32.9967 120.115 32.9967L119.306 32.9935ZM95.9855 17.7615C96.0362 17.8225 96.0665 17.8443 96.0773 17.8704C96.1075 17.9554 96.1302 18.0425 96.1562 18.1285C97.161 21.3953 98.4068 24.5532 100.478 27.2984C101.093 28.114 101.769 28.9263 102.563 29.5535C103.981 30.6719 105.589 29.976 105.913 28.1945C105.949 27.9056 105.959 27.6142 105.944 27.3234C105.944 26.0374 105.858 24.7426 105.972 23.4664C106.189 21.0588 106.457 18.6501 106.826 16.2621C107.319 13.0824 107.916 9.92123 109.37 6.99963C109.792 6.15027 109.686 5.2911 109.071 4.56261C108.423 3.78729 107.574 3.47368 106.559 3.71216C105.803 3.88747 105.361 4.40036 105.029 5.0548C103.448 8.17241 102.755 11.5492 102.193 14.9641C101.957 16.3949 101.79 17.8377 101.579 19.372C101.489 19.1488 101.425 19.0203 101.387 18.8853C100.779 16.751 100.159 14.6189 99.5748 12.478C99.3144 11.523 99.2075 10.518 98.8866 9.58693C98.3463 8.02867 96.5948 7.70417 95.4679 8.91179C95.1903 9.22011 94.9542 9.56389 94.7656 9.9343C93.6343 12.0751 92.5214 14.2269 91.4009 16.3742C90.6176 17.8748 89.8331 19.3753 89.0238 20.9183C88.978 20.8187 88.9397 20.7156 88.9093 20.6102C88.0708 16.1412 87.2353 11.6719 86.4026 7.20217C86.2502 6.38003 86.18 5.50236 85.3415 5.06025C84.4069 4.56914 83.442 4.6421 82.5863 5.24319C81.7845 5.80508 81.562 6.66751 81.7154 7.60508C82.1562 10.2947 82.543 12.9953 83.0984 15.6632C83.8472 19.2664 84.6975 22.8501 85.5835 26.4207C85.8277 27.4007 86.274 28.3644 86.7786 29.2519C87.3102 30.1862 88.1832 30.331 89.0303 29.6777C89.6051 29.2323 90.181 28.6976 90.543 28.0835C91.6235 26.2508 92.623 24.367 93.6148 22.4809C94.4339 20.9325 95.1902 19.3524 95.9855 17.7615ZM141.464 15.2984C141.431 13.9666 141.269 12.6294 140.806 11.3379C139.742 8.3608 137.364 6.59237 134.402 6.57386C131.912 6.55862 130.031 7.71506 128.598 9.67513C126.246 12.8929 125.427 16.5212 125.968 20.4468C126.23 22.3459 126.952 24.0828 128.396 25.4112C131.171 27.9648 135.617 27.6381 138.13 24.6762C140.406 21.9964 141.387 18.8221 141.464 15.2984ZM116.052 27.1285C116.392 27.1034 116.734 27.1002 117.071 27.0512C119.202 26.7365 120.757 25.5267 121.954 23.7964C123.282 21.8966 124.13 19.6992 124.425 17.3946C124.704 15.2472 124.61 13.1477 123.847 11.1005C121.944 5.99564 115.671 5.14628 112.517 8.77241C109.029 12.7829 108.032 17.4359 109.668 22.518C110.624 25.4907 113.062 27.1067 116.052 27.1285Z" fill="#181818"/>
<path d="M87.3566 47.1202C86.9471 51.2233 86.5376 55.3263 86.1249 59.4566H81.4409C82.2178 53.3216 82.9925 47.2095 83.7715 41.0657H90.0578C90.7407 44.3782 91.4268 47.7082 92.1302 51.1198C92.4479 49.543 92.7288 48.0479 93.0519 46.5626C93.4257 44.8487 93.8298 43.1423 94.2404 41.4381C94.2782 41.2813 94.4846 41.0494 94.6154 41.0483C96.6283 41.0233 98.6424 41.0309 100.728 41.0309C101.559 47.1757 102.379 53.302 103.209 59.4893H99.7682C98.2901 59.4893 98.2934 59.4893 98.1475 58.0116C97.7769 54.392 97.403 50.7735 96.959 47.13C96.9146 47.2661 96.8617 47.3989 96.8282 47.5372C95.8975 51.3674 94.9716 55.1982 94.0503 59.0298C93.966 59.3815 93.8342 59.5078 93.4798 59.4969C92.6888 59.473 91.8958 59.4686 91.1027 59.4969C90.7115 59.5111 90.5473 59.3935 90.4544 58.996C89.5036 55.1521 88.5279 51.3147 87.5587 47.4762C87.5284 47.3576 87.4863 47.241 87.4506 47.1245L87.3566 47.1202Z" fill="#181818"/>
<path d="M109.77 47.0951C109.361 51.1971 108.952 55.2991 108.539 59.4435H103.86C104.015 58.1989 104.164 56.9673 104.32 55.7412C104.847 51.5742 105.375 47.4072 105.904 43.2403C105.979 42.6479 106.064 42.0566 106.12 41.4631C106.15 41.1593 106.248 41.021 106.583 41.0276C108.399 41.0417 110.217 41.0515 112.033 41.0221C112.5 41.0145 112.503 41.3118 112.562 41.5982C113.185 44.6268 113.806 47.6559 114.423 50.6853C114.431 50.735 114.45 50.7822 114.479 50.8232C114.508 50.8642 114.546 50.8979 114.59 50.9216C114.784 49.9241 114.958 48.9223 115.176 47.9292C115.649 45.7753 116.149 43.6279 116.623 41.474C116.701 41.119 116.857 41.0221 117.205 41.0265C119.023 41.0424 120.839 41.0424 122.655 41.0265C123.015 41.0265 123.138 41.1288 123.187 41.5023C123.953 47.2969 124.729 53.0896 125.517 58.8806C125.541 59.057 125.543 59.2355 125.56 59.4544H120.691C120.259 55.347 119.829 51.2352 119.402 47.119L119.311 47.1114C118.324 51.2243 117.337 55.3383 116.34 59.4904C115.286 59.4904 114.263 59.5056 113.242 59.4708C113.119 59.4708 112.939 59.2105 112.895 59.0417C112.279 56.6624 111.682 54.2777 111.08 51.8951L109.878 47.1114L109.77 47.0951Z" fill="#181818"/>
<path d="M143.448 59.4577H138.517V41.0951C138.566 41.0701 138.619 41.0521 138.674 41.0417C141.206 41.0886 143.741 41.0907 146.272 41.2084C147.426 41.2617 148.508 41.7136 149.486 42.3648C152.668 44.4828 152.511 49.0672 149.202 50.9673C149.094 51.0294 148.986 51.0871 148.802 51.1851C150.099 53.926 151.395 56.6548 152.726 59.461C152.485 59.4741 152.316 59.4904 152.147 59.4904C150.78 59.4904 149.414 59.4751 148.041 59.5013C147.643 59.5089 147.442 59.3837 147.27 59.0178C146.121 56.5644 144.947 54.1176 143.78 51.6795C143.707 51.5031 143.591 51.3483 143.443 51.2298L143.448 59.4577ZM143.434 49.0606C144.181 48.9016 144.884 48.8036 145.554 48.5967C146.224 48.3898 146.635 47.8813 146.675 47.1583C146.712 46.396 146.589 45.6621 145.908 45.184C145.172 44.6668 144.318 44.6319 143.434 44.6025V49.0606Z" fill="#181818"/>
<path d="M136.351 48.3507C136.351 49.5757 136.351 50.6973 136.351 51.8189C136.351 51.9278 136.339 52.0301 136.33 52.1891H132.02V55.5724H137.008C137.034 55.7252 137.053 55.8794 137.064 56.0341C137.064 57.049 137.064 58.0628 137.064 59.0777C137.064 59.3292 137.064 59.5383 136.712 59.5372C133.527 59.5231 130.344 59.5209 127.161 59.5144C127.146 59.5144 127.131 59.4969 127.068 59.4599V41.1115H136.979V44.9902H132.006V48.3507H136.351Z" fill="#181818"/>
<path d="M136.768 15.2624C136.73 17.4991 136.335 19.249 135.188 20.7278C134.77 21.2453 134.264 21.6834 133.694 22.0214C132.789 22.5659 131.924 22.3165 131.381 21.4062C130.609 20.1125 130.357 18.7067 130.506 17.1964C130.67 15.4771 131.335 13.8451 132.417 12.5053C132.674 12.1813 132.977 11.8973 133.317 11.6624C134.28 10.996 135.297 11.2269 135.902 12.232C136.53 13.2795 136.801 14.4272 136.768 15.2624Z" fill="#181818"/>
<path d="M119.906 15.6588C119.836 17.5732 119.434 19.3884 118.182 20.8988C117.809 21.3378 117.366 21.712 116.873 22.0062C115.957 22.5594 115.073 22.3198 114.503 21.4062C113.688 20.0995 113.487 18.6381 113.631 17.1343C113.786 15.4851 114.419 13.9182 115.452 12.6294C115.747 12.244 116.101 11.9071 116.499 11.6309C117.439 11.0058 118.419 11.2313 119.007 12.1939C119.641 13.2331 119.954 14.4395 119.906 15.6588Z" fill="#181818"/>
</g>
<path d="M451.24 59.9999C450.637 58.1613 450.062 56.3121 449.415 54.4895C449.214 53.9174 449.526 53.8448 449.894 53.7031C452.697 52.6262 455.014 50.9399 456.684 48.3893C456.935 48.0344 457.109 47.6306 457.197 47.2036C457.284 46.7766 457.283 46.3359 457.192 45.9096C455.855 38.7803 454.55 31.6421 453.227 24.5128C452.99 23.2287 452.976 23.2322 454.236 23.2322C456.074 23.2322 457.916 23.2517 459.749 23.2198C460.315 23.2198 460.481 23.397 460.534 23.9638C461.042 29.258 461.585 34.5488 462.111 39.8395C462.128 40.006 462.09 40.1937 462.286 40.3106C462.503 40.1743 462.516 39.9245 462.584 39.719C464.37 34.4389 466.395 29.2492 468.367 24.0399C468.602 23.4182 468.906 23.2003 469.569 23.2145C471.689 23.2588 473.813 23.2322 476 23.2322C475.966 23.4043 475.92 23.5736 475.861 23.7388C472.334 31.1497 469.138 38.7201 465.347 45.9999C463.595 49.3653 461.562 52.5535 458.936 55.3131C456.922 57.428 454.555 58.9885 451.751 59.8369C451.683 59.8582 451.634 59.945 451.576 59.9999H451.24Z" fill="#181818"/>
<path d="M302.965 58.9459C302.965 41.5877 302.965 24.2294 302.965 6.87112C303.372 6.82507 303.6 7.11201 303.841 7.35644C304.781 8.27926 305.739 9.18438 306.645 10.1373C306.833 10.3581 307.069 10.5319 307.334 10.645C307.6 10.7581 307.887 10.8074 308.175 10.7891C309.105 10.7484 310.041 10.8405 310.979 10.8068C311.834 10.775 312.23 11.1062 312.351 11.983C312.868 15.7309 313.435 19.4736 313.984 23.2162C314.832 28.9929 315.68 34.7683 316.527 40.5426C317.192 45.0699 317.85 49.5973 318.538 54.121C318.649 54.849 318.519 55.1997 317.723 55.391C313.081 56.5051 308.455 57.6848 303.822 58.8343C303.539 58.8876 303.253 58.9248 302.965 58.9459Z" fill="#181818"/>
<path d="M360.053 48.5222C360.785 44.6042 361.511 40.7694 362.213 36.9293C362.564 34.9969 363.055 33.0822 363.021 31.0842C362.983 28.7019 361.281 27.7188 359.219 28.9215C358.069 29.5928 357.323 30.6379 356.69 31.7803C355.574 33.796 355.215 36.0313 354.794 38.256C354.195 41.4301 353.59 44.6024 353.015 47.78C352.914 48.3433 352.711 48.547 352.117 48.5346C350.25 48.4903 348.382 48.4956 346.509 48.5346C345.901 48.547 345.77 48.3575 345.878 47.7818C347.722 38.1202 349.555 28.4563 351.379 18.79C351.761 16.7707 352.153 14.7533 352.506 12.7287C352.6 12.1885 352.809 12.0043 353.361 12.0202C355.23 12.0533 357.099 12.0533 358.968 12.0202C359.613 12.0096 359.741 12.1814 359.613 12.8297C358.747 17.2082 357.927 21.5938 357.093 25.9795C357.085 26.0714 357.085 26.1639 357.093 26.2558C357.426 26.277 357.514 25.983 357.673 25.8165C359.425 23.9868 361.49 22.8745 364.034 22.6672C367.605 22.375 370.137 24.5394 370.383 28.1493C370.542 30.4926 370.118 32.774 369.682 35.0571C368.865 39.3241 368.068 43.5963 367.262 47.8668C367.206 48.1662 367.262 48.5328 366.762 48.5293C364.542 48.5116 362.329 48.5222 360.053 48.5222Z" fill="#181818"/>
<path d="M434.975 48.5222C435.578 45.2738 436.163 42.105 436.757 38.9362C437.36 35.7356 437.956 32.5314 438.592 29.3378C438.723 28.6736 438.527 28.5124 437.912 28.5549C437.297 28.5974 436.628 28.546 435.984 28.5708C435.534 28.5868 435.434 28.3937 435.518 27.9881C435.807 26.5498 436.093 25.1098 436.349 23.6663C436.423 23.2553 436.615 23.1349 436.997 23.1349C437.698 23.1526 438.399 23.1118 439.1 23.1473C439.617 23.1738 439.801 22.979 439.878 22.4653C440.107 20.8948 440.542 19.3621 441.171 17.9079C443.052 13.6055 446.863 11.2604 451.582 11.5314C452.485 11.5583 453.383 11.6914 454.256 11.9282C454.673 12.0521 454.845 12.2204 454.729 12.6685C454.342 14.1741 453.96 15.6797 453.602 17.1941C453.502 17.6121 453.313 17.6635 452.922 17.5944C449.644 17.0117 447.851 18.2214 447.084 21.5089C446.703 23.1384 446.703 23.1384 448.328 23.1384C449.23 23.1384 450.134 23.1579 451.039 23.1384C451.515 23.1242 451.662 23.2943 451.564 23.7601C451.293 25.1771 451.023 26.5853 450.785 28.0111C450.713 28.4433 450.536 28.5886 450.101 28.5797C448.906 28.5514 447.709 28.5992 446.514 28.5567C445.973 28.5372 445.75 28.7214 445.652 29.2528C444.547 35.2266 443.431 41.1987 442.305 47.169C442.237 47.454 442.183 47.7425 442.146 48.0334C442.114 48.4018 441.949 48.5346 441.585 48.5329C439.408 48.5222 437.225 48.5222 434.975 48.5222Z" fill="#181818"/>
<path d="M333.995 48.9685C331.251 48.9809 329.129 48.5523 327.107 47.6224C326.581 47.3779 326.371 47.1211 326.616 46.5012C327.091 45.302 327.492 44.0763 327.885 42.8453C328.06 42.2998 328.235 42.1758 328.786 42.4432C330.208 43.1318 331.742 43.552 333.314 43.6831C333.98 43.7526 334.654 43.687 335.295 43.4901C337.048 42.9162 337.573 41.0298 336.398 39.5933C335.907 38.9964 335.269 38.5819 334.63 38.1763C333.99 37.7707 333.293 37.3385 332.651 36.8815C327.307 33.0875 329.332 26.8651 333.212 24.4827C336.051 22.7381 339.138 22.5202 342.324 22.8496C343.312 22.941 344.282 23.1736 345.205 23.5404C345.678 23.7335 345.888 23.939 345.676 24.5164C345.208 25.7793 344.812 27.0705 344.423 28.3618C344.281 28.8347 344.087 28.9339 343.631 28.7515C342.223 28.1701 340.701 27.924 339.184 28.0323C338.629 28.0658 338.089 28.2282 337.607 28.507C336.38 29.2279 336.149 30.6502 337.069 31.7413C337.549 32.3099 338.169 32.696 338.804 33.0627C339.741 33.5995 340.64 34.2014 341.495 34.8641C346.151 38.4969 344.386 44.5386 341.003 46.8678C339.075 48.1963 336.615 48.9243 333.995 48.9685Z" fill="#181818"/>
<path d="M425.228 48.5224C424.324 48.5224 423.415 48.4568 422.518 48.5401C421.62 48.6233 421.764 48.1451 421.869 47.5942C422.509 44.2501 423.144 40.9048 423.772 37.5583C424.633 33.031 425.504 28.5054 426.341 23.9728C426.438 23.4521 426.578 23.2112 427.154 23.22C429.078 23.2519 431.003 23.2519 432.928 23.22C433.501 23.2112 433.615 23.3972 433.51 23.9427C431.983 31.8696 430.469 39.7989 428.968 47.7306C428.859 48.308 428.684 48.5879 428.027 48.5383C427.1 48.4692 426.162 48.5224 425.228 48.5224Z" fill="#181818"/>
<path d="M435.154 15.9151C435.166 18.3683 433.429 20.113 430.973 20.113C428.929 20.113 427.592 18.7208 427.585 16.5847C427.585 14.2342 429.338 12.4134 431.616 12.3957C433.678 12.3886 435.143 13.8357 435.154 15.9151Z" fill="#181818"/>
<path fill-rule="evenodd" clip-rule="evenodd" d="M407.029 26.4206C406.9 26.5684 406.761 26.7277 406.605 26.9024C406.652 26.4651 406.694 26.0554 406.735 25.6637C406.804 24.9909 406.868 24.3713 406.941 23.7567C407.003 23.2784 406.885 23.0694 406.36 23.0783C404.696 23.109 403.034 23.109 401.373 23.0783C400.833 23.0694 400.691 23.2838 400.633 23.7868C400.11 28.3852 399.24 32.926 398.37 37.4657C398.218 38.2611 398.066 39.0564 397.915 39.8521C397.807 40.4271 397.699 41.0021 397.59 41.5771C396.574 46.9732 395.557 52.3703 394.512 57.763C394.36 58.5494 394.588 58.6911 395.313 58.6698C397.013 58.6202 398.709 58.5884 400.395 58.6805C401.316 58.7301 401.558 58.351 401.697 57.5415C402.011 55.6913 402.353 53.846 402.695 52.0012C402.894 50.9302 403.093 49.8595 403.286 48.788C403.293 48.7521 403.298 48.7164 403.304 48.6817C403.359 48.3429 403.402 48.0802 403.971 48.2938C408.017 49.8153 411.839 49.137 415.048 46.388C420.575 41.6516 422.323 35.4222 421.065 28.3549C420.571 25.5793 418.917 23.5034 416.015 22.864C412.724 22.1413 410.003 23.3139 407.707 25.6714C407.485 25.8981 407.275 26.1385 407.029 26.4206ZM410.868 41.8039C413.068 39.1825 413.884 36.0385 414.119 32.6962C414.142 31.8703 414.008 31.0476 413.723 30.2731C413.281 29.1005 412.379 28.5319 411.151 28.5691C409.922 28.6063 409.009 29.2652 408.233 30.1385C406.996 31.5271 406.272 33.1939 405.899 34.9935C405.677 36.0669 405.486 37.1471 405.296 38.227C405.085 39.4281 404.874 40.6289 404.618 41.8199C404.458 42.5815 404.734 42.8755 405.319 43.1625C407.301 44.1296 409.291 43.6886 410.868 41.8039Z" fill="#181818"/>
<path fill-rule="evenodd" clip-rule="evenodd" d="M378.673 25.2286C374.234 28.6436 372.501 33.387 372.289 37.9816C372.27 44.1544 375.014 47.8864 379.726 48.8057C383.106 49.4646 386.281 48.7951 389.168 46.8981C395.225 42.9092 396.983 34.4993 395.669 29.5398C394.673 25.7759 392.259 23.4272 388.414 22.809C384.862 22.2369 381.55 23.0198 378.673 25.2286ZM386.989 40.2506C388.095 37.995 388.712 35.5271 388.799 33.0115C388.81 32.0692 388.791 31.2774 388.55 30.5051C387.911 28.3903 385.819 27.5188 383.87 28.5568C383.179 28.9422 382.585 29.4842 382.135 30.1403C380.854 31.9133 380.19 33.9414 379.803 36.0669C379.501 37.7248 379.319 39.3933 379.815 41.0441C380.586 43.6248 383.283 44.374 385.284 42.578C385.994 41.9195 386.573 41.1295 386.989 40.2506Z" fill="#181818"/>
<path fill-rule="evenodd" clip-rule="evenodd" d="M300.139 58.4756L300.138 58.4755L300.136 58.4751L300.135 58.475L300.135 58.4749C298.116 58.1401 296.098 57.8052 294.083 57.4564C290.927 56.9103 287.773 56.3611 284.618 55.8119L284.615 55.8114C279.096 54.8504 273.576 53.8895 268.05 52.9451C267.213 52.8016 266.897 52.6103 267.029 51.6237C268.069 43.8391 269.066 36.0485 270.063 28.2578C270.278 26.5755 270.493 24.8933 270.709 23.211C270.78 22.6578 270.854 22.1047 270.927 21.5516C271.101 20.24 271.275 18.9283 271.427 17.6139C271.525 16.7708 271.953 16.2978 272.745 16.0587C273.511 15.8264 274.277 15.5856 275.044 15.3445C276.032 15.0341 277.021 14.7232 278.014 14.4292C278.612 14.2521 278.89 13.9456 279.036 13.3027C280.063 8.92235 281.894 4.97778 285.344 1.96665C286.676 0.804705 288.221 0.0731779 290.021 0.00764154C290.649 -0.0287809 291.278 0.0652696 291.869 0.283994C292.46 0.502719 293.001 0.841481 293.457 1.2794C293.718 1.52737 293.969 1.73107 294.363 1.73107C296.69 1.73107 298.229 3.0046 299.343 4.91932C299.68 5.47012 299.953 6.05783 300.158 6.67109C300.36 7.33177 300.693 7.40262 301.259 7.1883L301.289 7.17697C301.843 6.96677 302.366 6.76868 302.96 6.87656C303.092 6.99231 303.198 7.13616 303.269 7.29783C303.339 7.4595 303.374 7.63499 303.37 7.81178C303.389 8.16603 303.395 8.52028 303.395 8.87453C303.395 24.9044 303.392 40.9342 303.386 56.964C303.387 57.0887 303.394 57.2162 303.401 57.3448C303.432 57.9071 303.465 58.4905 302.965 58.9461C302.024 58.7884 301.083 58.6322 300.141 58.476L300.14 58.4758L300.139 58.4756ZM291.629 2.3936C289.054 4.03732 287.61 6.50999 286.586 9.28555C286.562 9.35036 286.537 9.41542 286.512 9.4807C286.357 9.88461 286.198 10.2971 286.16 10.7149C286.062 11.7777 285.46 12.1957 284.496 12.4118C283.734 12.5827 282.989 12.8355 282.246 13.0879L282.246 13.088C282.049 13.1548 281.852 13.2216 281.655 13.2868C281.144 13.4639 280.909 13.3559 281.079 12.7802C282.188 9.02517 283.853 5.60842 286.981 3.10918C287.99 2.30326 289.141 1.83388 290.462 1.93307L290.482 1.93451C290.877 1.96407 291.283 1.99444 291.629 2.3936ZM292.625 9.85759C293.944 9.44489 293.944 9.44312 293.892 8.03852C293.868 6.95028 293.692 5.87088 293.369 4.83255C293.066 3.8495 292.938 3.79814 292.134 4.38088C289.968 5.95553 288.903 8.25638 288.104 10.7202C287.916 11.2852 288.267 11.2144 288.617 11.1081C289.954 10.6919 291.305 10.2703 292.625 9.85759ZM295.15 4.1382C295.097 3.65405 295.382 3.77183 295.626 3.87204L295.635 3.87606C296.568 4.25865 297.193 4.976 297.698 5.82443C298.891 7.82595 298.676 8.28824 296.38 8.69209C296.082 8.74346 295.837 8.76648 295.821 8.38389C295.782 6.94506 295.557 5.51762 295.15 4.1382ZM277.21 46.333C279.295 47.9356 281.849 48.7896 284.468 48.7596C286.217 48.7702 287.415 48.5311 288.639 47.9289C292.035 46.2497 293.86 42.1085 293.086 37.9496C292.599 35.3335 291.011 33.5428 288.936 32.0815C288.548 31.807 288.148 31.5488 287.748 31.2906C286.968 30.7874 286.188 30.2841 285.493 29.6602C284.097 28.4115 284.338 26.4418 286.003 25.5863C286.394 25.389 286.812 25.2495 287.242 25.1718C288.774 24.9065 290.348 25.0475 291.81 25.581C292.36 25.7723 292.585 25.6607 292.727 25.0868C293.161 23.3179 293.629 21.5573 294.129 19.8049C294.32 19.1301 294.118 18.8396 293.464 18.682C291.761 18.2728 290.056 18.3171 288.335 18.5296C283.474 19.1319 279.824 22.2847 278.762 26.8333C277.83 30.8257 278.91 33.7553 282.193 36.1625C282.877 36.6637 283.56 37.1703 284.219 37.7017C284.827 38.1689 285.281 38.8102 285.523 39.542C286.063 41.2548 285.025 42.7161 283.245 42.7303C282.778 42.7315 282.313 42.6719 281.861 42.5531C280.673 42.2323 279.547 41.7113 278.531 41.0121C277.941 40.6189 277.657 40.5888 277.508 41.3983C277.289 42.5815 277.014 43.7594 276.684 44.916C276.509 45.5802 276.707 45.9522 277.21 46.333Z" fill="#444444"/>
<g clip-path="url(#clip1_1_8464)">
<path d="M664.91 53.5862C664.926 50.7263 664.942 47.869 664.959 45.0142C664.959 44.0352 664.959 43.0547 664.959 41.9255C664.839 42.0189 664.725 42.1213 664.619 42.2319C661.065 47.0534 651.91 46.9615 649.239 38.9594C647.789 34.6175 648.033 30.3047 650.777 26.5005C654.086 21.9043 660.681 21.676 664.411 25.8984C664.54 26.0516 664.673 26.1895 664.937 26.4837V23.4501H667.862V53.5847L664.91 53.5862ZM664.955 34.1946C664.975 32.4572 664.699 30.7812 663.859 29.2583C662.467 26.7303 660.284 25.6962 657.558 25.8739C654.938 26.0455 653.143 27.4933 652.228 30.0212C651.212 32.8234 651.195 35.6807 652.254 38.4676C653.226 41.0139 655.139 42.3683 657.76 42.5077C660.278 42.6425 662.336 41.6559 663.698 39.3899C664.653 37.8088 664.971 36.0393 664.955 34.1946Z" fill="#181818"/>
<path d="M624.441 39.8909L627.006 37.9513C627.099 38.0525 627.187 38.1589 627.269 38.27C629.69 42.0328 634.443 43.0409 638.031 41.947C640.71 41.1334 642.133 39.01 641.916 36.2231C641.81 34.8672 641.21 33.7442 640.049 33.2126C638.331 32.4235 636.516 31.8551 634.735 31.2025C632.887 30.5253 630.96 30.0212 629.197 29.1587C623.831 26.5327 624.388 19.1189 628.798 16.3413C633.721 13.2388 641.131 14.656 644.539 19.5464L642.112 21.5151C640.896 19.9248 639.424 18.8018 637.595 18.2671C635.296 17.5945 633.02 17.6144 630.857 18.7972C628.996 19.8145 628.166 21.846 628.733 23.8332C629.006 24.7892 629.564 25.5644 630.407 25.9781C631.655 26.5671 632.933 27.0867 634.234 27.5347C636.206 28.2364 638.229 28.7971 640.176 29.5647C641.136 29.96 642.026 30.5198 642.807 31.2208C646.223 34.2406 645.922 40.1177 642.247 43.1711C640.661 44.4887 638.816 45.1628 636.828 45.3742C632.437 45.8262 628.523 44.7614 625.462 41.2529C625.099 40.8439 624.799 40.3766 624.441 39.8909Z" fill="#181818"/>
<path d="M747.737 34.7048H731.927C731.512 37.2863 733.219 40.5711 735.546 41.7524C737.128 42.5326 738.918 42.7355 740.625 42.3281C742.332 41.9207 743.856 40.9269 744.95 39.5079L747.017 41.4C746.132 42.6062 744.993 43.5866 743.687 44.2665C739.474 46.5003 734.109 45.5534 731.255 42.0496C729.435 39.8143 728.77 37.1546 728.774 34.2957C728.774 30.729 729.704 27.4933 732.45 25.1415C735.365 22.6458 738.718 22.2903 742.172 23.6416C745.485 24.9393 747.25 27.6373 747.72 31.2224C747.86 32.3408 747.737 33.4929 747.737 34.7048ZM731.971 31.9777H744.736C744.627 28.4049 742.102 25.8861 738.621 25.8233C734.932 25.7589 732.221 28.244 731.971 31.9777Z" fill="#181818"/>
<path d="M696.963 28.149L695.468 25.7957C697.131 24.4052 699.116 23.4909 701.225 23.1437C703.262 22.7821 705.293 22.7913 707.257 23.5666C709.547 24.469 710.937 26.4392 710.948 28.9472C710.98 34.1287 710.959 39.3102 710.959 44.4933C710.959 44.6158 710.931 44.7399 710.905 44.9652C710.091 44.9652 709.281 44.9927 708.485 44.9391C708.338 44.9299 708.109 44.6021 708.087 44.4013C708.052 43.8766 708.046 43.3503 708.068 42.8248C707.954 42.8248 707.892 42.8064 707.871 42.8248C705.154 45.7097 701.887 46.0146 698.404 44.8518C695.908 44.0183 694.507 41.7876 694.475 38.9808C694.442 36.2231 695.655 34.1594 698.194 33.26C699.945 32.6472 701.828 32.4266 703.638 31.9762C704.689 31.7353 705.72 31.41 706.723 31.0033C707.632 30.6157 708.079 29.8021 708.051 28.7373C708.023 27.6725 707.514 26.9494 706.642 26.4898C705.176 25.7237 703.604 25.7099 702.026 25.9198C700.181 26.1742 698.473 26.8345 696.963 28.149ZM707.987 33.306C705.93 34.403 703.721 34.6251 701.564 35.0786C700.797 35.2478 700.042 35.4751 699.307 35.7589C698.944 35.8853 698.612 36.0945 698.337 36.3713C698.061 36.6481 697.849 36.9854 697.716 37.3584C696.978 39.3761 697.927 41.495 699.895 42.1783C700.386 42.3377 700.892 42.4445 701.405 42.497C704.701 42.9091 707.513 40.9097 707.954 37.6893C708.146 36.2951 707.987 34.8488 707.987 33.306Z" fill="#181818"/>
<path d="M690.023 44.9222H687.218V41.9959C686.914 42.3146 686.755 42.4724 686.603 42.6409C685.444 43.926 683.946 44.8271 682.296 45.2308C680.646 45.6345 678.918 45.5229 677.328 44.91C674.844 43.931 673.652 41.8841 673.21 39.2888C673.094 38.5329 673.041 37.7682 673.049 37.0029C673.035 32.7912 673.049 28.5764 673.049 24.3678V23.4715H675.957V24.2667C675.957 28.2746 675.957 32.2825 675.965 36.2905C675.959 37.0545 676.011 37.8178 676.121 38.5733C676.589 41.5241 678.391 42.739 681.16 42.4939C684.781 42.1737 687.177 39.3025 687.199 35.3773C687.22 31.7004 687.199 28.0234 687.199 24.3464V23.4608H690.031L690.023 44.9222Z" fill="#181818"/>
<path d="M716.188 44.9683V23.4762H719.016V25.8678L719.299 26.0746C719.394 25.877 719.447 25.6365 719.594 25.4909C721.679 23.3583 724.107 22.4605 726.993 23.3782C728.041 23.7122 728.038 23.7781 727.689 24.8168C727.497 25.3883 727.307 25.9597 727.171 26.3673C726.01 26.2616 724.929 25.9797 723.894 26.1068C721.441 26.4132 719.704 28.4049 719.249 31.2378C719.119 32.1198 719.056 33.0112 719.062 33.9036C719.039 37.3242 719.039 40.7459 719.062 44.1685C719.062 44.7952 718.905 45.0372 718.278 44.9867C717.6 44.9254 716.914 44.9683 716.188 44.9683Z" fill="#181818"/>
<path fill-rule="evenodd" clip-rule="evenodd" d="M584.403 6.41382C574.461 6.41382 566.403 14.4727 566.403 24.4138V35.5862C566.403 45.5274 574.461 53.5862 584.403 53.5862H593.903C603.844 53.5862 611.903 45.5273 611.903 35.5862V24.4138C611.903 14.4727 603.844 6.41382 593.903 6.41382H584.403ZM581.456 14.6897C577.59 14.6897 574.456 17.8237 574.456 21.6897V38.3104C574.456 42.1764 577.59 45.3104 581.456 45.3104H596.849C600.715 45.3104 603.849 42.1764 603.849 38.3104V21.6897C603.849 17.8237 600.715 14.6897 596.849 14.6897H581.456Z" fill="#181818"/>
<rect x="582.911" y="23.3794" width="12.4823" height="13.2414" rx="4" fill="#181818"/>
</g>
<g clip-path="url(#clip2_1_8464)">
<path d="M870.5 49.9863L868.258 47.5424C869.316 46.5616 870.434 45.589 871.488 44.5287C874.919 41.0794 878.344 37.6274 881.729 34.1178C883.773 32.0054 884.021 29.1068 882.464 26.8712C880.328 23.8027 876.358 23.4958 873.64 26.2273C869.41 30.4794 865.192 34.7452 860.987 39.0246L858.242 41.8191L855.76 39.1123C859.183 35.7452 862.688 32.315 866.173 28.8657C867.918 27.1397 869.607 25.3561 871.36 23.6383C875.049 20.0164 880.611 19.978 884.178 23.5178C887.746 27.0575 887.917 32.7205 884.304 36.4164C879.811 40.9972 875.164 45.4164 870.5 49.9863Z" fill="#181818"/>
<path d="M856.187 12.6028C851.774 16.9863 847.273 21.348 842.854 25.8164C839.973 28.7343 840.694 33.1863 844.231 35.0439C846.329 36.1397 849.045 35.6384 850.947 33.7205C855.877 28.7452 860.797 23.7607 865.706 18.7671C865.863 18.6055 866.029 18.4548 866.25 18.2466L868.764 20.9863C864.914 24.7589 860.919 28.6576 856.936 32.5863C855.638 33.8603 854.4 35.1973 853.083 36.4521C849.317 40.0329 843.796 39.9945 840.261 36.3918C838.576 34.6599 837.636 32.3294 837.646 29.905C837.655 27.4805 838.612 25.1573 840.31 23.4384C844.735 18.9261 849.257 14.5124 853.88 9.91235L856.187 12.6028Z" fill="#181818"/>
<path d="M934.109 37.7288L937.045 41.737C934.798 41.9096 932.996 42.337 931.984 40.2548C931.614 39.4932 931.083 39.7589 930.504 39.9808C926.069 41.5781 921.252 40.0438 918.866 36.2931C915.644 31.2384 917.193 23.6658 922.063 21C925.516 19.1123 929.059 19.1699 932.403 21.2165C935.845 23.326 936.945 26.7315 936.896 30.5945C936.887 33.24 935.892 35.7858 934.109 37.7288ZM932.515 34.0137C933.464 31.6833 933.509 28.98 932.654 26.6137C931.747 24.1206 929.818 22.8356 927.252 22.7288C924.803 22.6274 922.809 23.6658 921.704 25.9534C920.262 28.9452 920.322 31.9589 922.039 34.8411C923.214 36.8137 925.048 37.6685 927.309 37.5808C929.641 37.4959 931.437 36.4274 932.395 34.2932C932.437 34.201 932.477 34.1078 932.515 34.0137Z" fill="#181818"/>
<path d="M1000.42 39.874C999.367 39.874 998.459 39.9507 997.572 39.8411C997.11 39.7452 996.695 39.4893 996.402 39.1178C994.894 37.2383 993.357 35.3753 992.004 33.3863C991.158 32.1424 990.176 31.9562 988.799 32.3068V39.7699H985.471V19.9698C988.872 20.1644 992.309 20.1096 995.656 20.6383C997.999 21.0054 999.272 23.1041 999.384 25.4301C999.52 28.2274 998.478 30.1233 996.192 31.2274C995.751 31.4411 995.302 31.6329 994.734 31.8931C995.773 33.2082 996.831 34.4411 997.77 35.7644C998.679 37.0466 1000.11 38.011 1000.42 39.874ZM988.834 29.2712C990.576 29.1424 992.157 29.1205 993.705 28.8822C995.177 28.6548 996.01 27.5507 996.048 26.1425C996.086 24.7342 995.297 23.5753 993.795 23.3479C992.176 23.1041 990.513 23.1616 988.834 23.0739V29.2712Z" fill="#181818"/>
<path d="M981.172 39.8767C980.179 39.9186 979.184 39.9058 978.192 39.8384C977.869 39.8028 977.463 39.3836 977.327 39.0466C976.81 37.7836 976.358 36.4932 975.95 35.1918C975.719 34.4631 975.33 34.2137 974.565 34.2329C972.388 34.2822 970.212 34.274 968.035 34.2329C967.297 34.2329 966.873 34.3945 966.647 35.1699C966.304 36.348 965.741 37.4631 965.436 38.6494C965.189 39.622 964.742 40.0192 963.749 39.8904C963.058 39.8498 962.365 39.8498 961.673 39.8904C961.839 39.1206 961.894 38.4904 962.106 37.9206C964.182 32.3343 966.302 26.7617 968.364 21.1699C968.636 20.4055 969.006 20.074 969.833 20.1397C970.781 20.2383 971.737 20.2383 972.685 20.1397C973.839 19.9891 974.244 20.5507 974.59 21.5288C976.62 27.1288 978.712 32.7069 980.769 38.2987C980.931 38.8172 981.065 39.344 981.172 39.8767ZM974.568 31.2219C973.681 28.6274 972.876 26.2247 972.027 23.8247C971.926 23.5507 971.58 23.3589 971.352 23.1288C971.123 23.3617 970.808 23.5534 970.682 23.8329C970.414 24.4596 970.178 25.0997 969.975 25.7507C969.357 27.5315 968.748 29.3123 968.092 31.2302L974.568 31.2219Z" fill="#181818"/>
<path d="M1076.82 39.8739C1075.68 39.8739 1074.74 39.9315 1073.81 39.8383C1073.53 39.8109 1073.18 39.4027 1073.06 39.0931C1072.57 37.8712 1072.11 36.6273 1071.73 35.3726C1071.49 34.5671 1071.14 34.1972 1070.23 34.2274C1068.05 34.2986 1065.88 34.2822 1063.7 34.2274C1062.94 34.2082 1062.57 34.4274 1062.34 35.178C1061.86 36.7342 1061.25 38.2548 1060.71 39.8356H1057.4C1057.46 39.2973 1057.57 38.7649 1057.71 38.2438C1059.81 32.6246 1061.95 27.0109 1064.01 21.3917C1064.37 20.4109 1064.83 20.0219 1065.86 20.1315C1067.15 20.2547 1068.75 19.7972 1069.66 20.4054C1070.52 20.9863 1070.69 22.6383 1071.13 23.8301C1072.89 28.5534 1074.64 33.2803 1076.38 38.0109C1076.56 38.6228 1076.71 39.2449 1076.82 39.8739ZM1063.8 31.1589H1070.27C1069.37 28.5616 1068.55 26.126 1067.69 23.7041C1067.61 23.4712 1067.27 23.1726 1067.06 23.1863C1066.93 23.2249 1066.8 23.2943 1066.7 23.3893C1066.59 23.4842 1066.51 23.6022 1066.45 23.7342C1065.56 26.1616 1064.71 28.5917 1063.8 31.1589Z" fill="#181818"/>
<path d="M897.969 34.4849L901.079 34.126C902.121 36.8328 904.224 37.9616 907.1 37.1397C908.545 36.726 909.258 35.7232 909.277 34.3479C909.277 32.9095 908.385 32.241 907.174 31.852C905.797 31.4082 904.398 31.0301 903.038 30.5397C899.813 29.3835 898.257 27.3342 898.518 24.6821C898.79 21.8191 900.717 19.9945 904.055 19.4109C907.25 18.863 910.21 19.9588 911.571 22.3177C911.963 22.9972 912.131 23.8054 912.45 24.6794L909.299 24.978C907.849 22.5753 906.254 21.8465 904.047 22.5534C903.008 22.8876 902.336 23.5588 902.213 24.6821C902.138 25.1643 902.235 25.6578 902.486 26.075C902.738 26.4922 903.128 26.8063 903.587 26.9616C905.179 27.6082 906.817 28.1342 908.428 28.7315C911.778 29.9725 912.91 31.4109 912.842 34.3095C912.774 37.1177 911.165 39.0356 908.012 39.9643C906.775 40.3534 905.469 40.4641 904.185 40.2884C902.902 40.1128 901.672 39.6551 900.583 38.9479C898.975 37.9397 898.241 36.378 897.969 34.4849Z" fill="#181818"/>
<path d="M1036.55 24.6904L1033.35 24.9643C1031.97 22.5835 1030.27 21.7315 1028.11 22.6164C1027.36 22.9233 1026.65 23.8137 1026.35 24.6027C1025.98 25.5945 1026.63 26.4767 1027.58 26.9123C1028.6 27.3753 1029.68 27.7342 1030.74 28.1205C1031.56 28.4164 1032.37 28.6685 1033.17 28.9835C1035.21 29.8246 1036.79 31.052 1036.92 33.5205C1037.06 36.1643 1036.01 38.1096 1033.7 39.3616C1030.12 41.2794 1024.99 40.2849 1023.03 37.263C1022.82 36.9635 1022.65 36.6419 1022.52 36.3041C1022.32 35.7561 1022.18 35.1835 1021.97 34.5014L1025.17 34.1205C1026.48 36.9397 1028.84 38.0438 1031.35 37.0986C1032.63 36.6164 1033.34 35.7095 1033.34 34.3041C1033.34 32.9479 1032.5 32.2602 1031.33 31.8794C1029.97 31.4328 1028.56 31.0575 1027.19 30.5589C1023.87 29.3781 1022.29 27.3123 1022.57 24.6383C1022.89 21.7233 1024.9 19.7808 1028.28 19.4027C1031.14 19.0849 1033.86 19.4794 1035.56 22.2383C1036.01 22.937 1036.2 23.7835 1036.55 24.6904Z" fill="#181818"/>
<path d="M942.553 19.7288H945.842C945.842 21.0247 945.842 22.2438 945.842 23.463C945.883 26.7041 945.842 29.9507 946.011 33.1808C946.169 36.0274 947.831 37.4794 950.479 37.4192C952.928 37.3644 954.612 35.6986 954.683 32.989C954.786 29.1534 954.729 25.3178 954.74 21.4822C954.74 20.9342 954.74 20.3863 954.74 19.7562H958.022C958.087 19.8466 958.179 19.9205 958.179 19.9918C958.16 24.5096 958.343 29.0329 958.054 33.5397C957.728 38.6247 954.577 40.4274 949.926 40.326C945.056 40.2219 942.525 37.537 942.484 32.6548C942.452 28.7288 942.484 24.8 942.484 20.874C942.479 20.5069 942.523 20.1534 942.553 19.7288Z" fill="#181818"/>
<path d="M1004.74 39.8V20.1945H1017.4V23.1287H1008.17V28.2821H1016.71V31.2958H1008.14V36.841H1017.5V39.8054L1004.74 39.8Z" fill="#181818"/>
<path d="M1115.01 39.8383H1102.32V19.9452H1114.96V22.8712H1105.58V28.0767H1114.29V31.0904H1105.6V36.7589H1115.01L1115.01 39.8383Z" fill="#181818"/>
<path d="M1045.59 32.2959V39.8082H1042.17V20.3945C1045.52 20.3945 1048.87 20.1589 1052.17 20.4658C1055.03 20.7397 1056.64 23.1233 1056.68 26.2192C1056.72 29.137 1055.05 31.3096 1052.2 31.8986C1051.14 32.1052 1050.06 32.2325 1048.98 32.2795C1047.91 32.3452 1046.83 32.2959 1045.59 32.2959ZM1045.7 23.189V29.3863C1047.39 29.3096 1048.98 29.326 1050.54 29.1397C1052.25 28.937 1053.17 27.8027 1053.17 26.211C1053.17 24.6192 1052.15 23.3616 1050.45 23.2192C1048.89 23.0877 1047.31 23.189 1045.7 23.189Z" fill="#181818"/>
<path d="M1097.3 25.2383C1096.44 25.4837 1095.57 25.6758 1094.68 25.8137C1094.48 25.807 1094.28 25.7542 1094.1 25.6593C1093.92 25.5644 1093.77 25.4298 1093.65 25.2657C1092.4 23.3479 1090.61 22.526 1088.43 22.6904C1086.08 22.8794 1084.35 24.1287 1083.46 26.3808C1082.4 29.0602 1082.42 31.7397 1083.78 34.3123C1085.68 37.8931 1090.85 38.4794 1093.3 35.3178C1094.07 34.3233 1094.7 33.9671 1095.84 34.3863C1096.36 34.5298 1096.89 34.6333 1097.42 34.6959C1096.5 38.3507 1092.05 40.8411 1087.6 40.2383C1082.36 39.5287 1079 35.4191 1079.09 29.8C1079.18 24.1808 1082.8 20.1397 1088.31 19.7013C1092.25 19.3972 1096.4 21.4822 1097.3 25.2383Z" fill="#181818"/>
<path d="M875.006 14.189L872.592 16.4465C872.372 16.2438 872.073 15.9862 871.792 15.7095C869.003 12.9534 865.871 12.9698 863.085 15.7835C858.428 20.5104 853.785 25.2493 849.156 29.9999C848.803 30.4283 848.487 30.8867 848.212 31.3698L845.232 28.4684C848.639 25.1808 851.986 21.9917 855.3 18.7588C857.118 16.9808 858.87 15.1342 860.655 13.3232C865.074 8.83556 870.927 9.14516 875.006 14.189Z" fill="#181818"/>
<path d="M849.551 45.8987C850.367 45.0767 851.126 44.3233 851.921 43.5288C852.514 44.0767 853.034 44.663 853.63 45.137C855.899 46.9507 859.025 46.6904 861.248 44.4411C865.983 39.6575 870.68 34.8356 875.398 30.0247C875.746 29.6685 876.062 29.2795 876.519 28.7644L879.009 31.7781C875.928 34.7617 872.663 37.9041 869.398 41.0849C867.613 42.8356 865.882 44.6466 864.141 46.4356C859.553 51.1644 853.943 51.0083 849.551 45.8987Z" fill="#181818"/>
</g>
<g clip-path="url(#clip3_1_8464)">
<path d="M1280.9 37.5272C1277.97 41.0818 1273.79 43.3818 1269.19 43.3818C1261.25 43.3818 1254.97 37.7363 1254.97 30.4181C1254.97 26.8636 1256.44 23.5181 1259.15 21.009C1261.66 18.4999 1265.22 17.2454 1268.77 17.4545C1273.37 17.4545 1277.76 19.5454 1280.48 23.309L1275.25 27.0727C1273.79 24.7727 1271.49 23.309 1268.77 23.309C1264.8 23.309 1261.45 26.6545 1261.45 30.6272C1261.66 34.809 1265.01 37.9454 1268.98 37.9454C1271.7 37.9454 1274.21 36.6908 1275.67 34.3909L1280.9 37.5272Z" fill="#181818"/>
<path d="M1290.31 7H1283.83V42.7545H1290.31V7Z" fill="#181818"/>
<path d="M1307.66 37.7364C1311.85 37.7364 1315.4 34.391 1315.61 30.2091C1315.4 26.0273 1311.85 22.6819 1307.66 22.6819C1303.48 22.6819 1299.93 26.0273 1299.72 30.2091C1299.93 34.391 1303.27 37.7364 1307.66 37.7364ZM1307.66 17.2455C1311.22 17.0364 1314.77 18.291 1317.49 20.8C1320.21 23.3091 1321.67 26.6546 1321.88 30.2091C1321.67 33.7637 1320.21 37.3182 1317.49 39.6182C1314.77 42.1273 1311.22 43.3819 1307.66 43.1728C1299.72 43.1728 1293.45 37.5273 1293.45 30.2091C1293.45 22.891 1299.72 17.2455 1307.66 17.2455Z" fill="#181818"/>
<path d="M1320.63 17.6637H1328.36L1334.64 31.0455L1341.33 17.6637H1348.44L1334.64 44.2182L1320.63 17.6637Z" fill="#181818"/>
<path d="M1367.05 26.6546C1366 24.1455 1363.7 22.6819 1360.98 22.6819C1358.26 22.6819 1355.75 24.1455 1354.5 26.6546H1367.05ZM1371.23 39.8273C1368.51 42.1273 1365.16 43.1728 1361.61 43.1728C1353.66 43.1728 1347.39 37.5273 1347.39 30.2091C1347.39 26.6546 1348.85 23.3091 1351.36 20.8C1353.87 18.291 1357.43 17.0364 1360.98 17.2455C1364.54 17.0364 1367.88 18.5 1370.39 21.0091C1372.9 23.5182 1374.15 26.8637 1373.95 30.4182V32.091H1353.87C1354.92 35.4364 1358.05 37.7364 1361.61 37.7364C1363.7 37.7364 1365.79 36.9 1367.46 35.2273L1371.23 39.8273ZM1377.08 28.7455C1377.08 22.6819 1381.68 17.8728 1389 17.8728V23.7273C1387.54 23.7273 1385.86 24.3546 1384.82 25.4C1383.77 26.4455 1383.35 28.1182 1383.56 29.5819V42.7546H1377.08V28.7455Z" fill="#181818"/>
<path d="M1225.28 18.7091C1225.28 14.5273 1222.77 10.9728 1219.01 9.30005C1215.25 7.62732 1210.85 8.46368 1207.93 11.391C1205 14.3182 1204.16 18.7091 1205.63 22.4728C1207.09 26.2364 1210.85 28.7455 1215.04 28.7455H1225.28V18.7091ZM1228.21 18.7091C1228.21 14.5273 1230.72 10.9728 1234.48 9.30005C1238.25 7.62732 1242.64 8.46368 1245.56 11.391C1248.49 14.3182 1249.33 18.7091 1247.86 22.4728C1246.4 26.2364 1242.64 28.7455 1238.45 28.7455H1228.21V18.7091ZM1228.21 41.7091C1228.21 45.891 1230.72 49.4455 1234.48 51.1182C1238.25 52.791 1242.64 51.9546 1245.56 49.0273C1248.49 46.1 1249.33 41.7091 1247.86 37.9455C1246.4 34.1819 1242.64 31.6728 1238.45 31.6728H1228.21V41.7091ZM1215.04 49.0273C1219.01 49.0273 1222.35 45.891 1222.35 41.7091V34.391H1215.04C1211.06 34.391 1207.72 37.5273 1207.72 41.7091C1207.72 45.891 1211.06 49.0273 1215.04 49.0273ZM1225.28 41.7091C1225.28 45.891 1222.77 49.4455 1219.01 51.1182C1215.25 52.791 1210.85 51.9546 1207.93 49.0273C1205 46.1 1204.16 41.7091 1205.63 37.9455C1207.09 34.1819 1210.85 31.6728 1215.04 31.6728H1225.28V41.7091Z" fill="#444444"/>
</g>
<defs>
<clipPath id="clip0_1_8464">
<rect width="126" height="60" fill="white" transform="translate(51)"/>
</clipPath>
<clipPath id="clip1_1_8464">
<rect width="182" height="48" fill="white" transform="translate(566 6)"/>
</clipPath>
<clipPath id="clip2_1_8464">
<rect width="277" height="40" fill="white" transform="translate(838 10)"/>
</clipPath>
<clipPath id="clip3_1_8464">
<rect width="184" height="46" fill="white" transform="translate(1205 7)"/>
</clipPath>
</defs>
</svg>
